<svg width="60" height="60" viewBox="0 0 60 60" fill="none" xmlns="http://www.w3.org/2000/svg">
<path d="M12.5 20V46C12.5 47.8856 12.5 48.8284 13.0858 49.4142C13.6716 50 14.6144 50 16.5 50H43.5C45.3856 50 46.3284 50 46.9142 49.4142C47.5 48.8284 47.5 47.8856 47.5 46V20M12.5 20H47.5M12.5 20H7.9C7.71144 20 7.61716 20 7.55858 19.9414C7.5 19.8828 7.5 19.7886 7.5 19.6V14C7.5 12.1144 7.5 11.1716 8.08579 10.5858C8.67157 10 9.61438 10 11.5 10H48.5C50.3856 10 51.3284 10 51.9142 10.5858C52.5 11.1716 52.5 12.1144 52.5 14V19.6C52.5 19.7886 52.5 19.8828 52.4414 19.9414C52.3828 20 52.2886 20 52.1 20H47.5" stroke="#666666" stroke-width="3"/>
<path d="M25 40H35" stroke="#666666" stroke-width="3" stroke-linecap="round"/>
</svg>
