<svg width="60" height="60" viewBox="0 0 60 60" fill="none" xmlns="http://www.w3.org/2000/svg">
<path d="M52.5 42.1953V13.1647C52.5 12.8463 52.1785 12.6286 51.8829 12.7469L40.1351 17.446C40.0473 17.4811 39.9506 17.4877 39.8588 17.4647L20.1412 12.5353C20.0494 12.5123 19.9527 12.5189 19.8649 12.554L7.78287 17.3869C7.61203 17.4552 7.5 17.6207 7.5 17.8047V46.8353C7.5 47.1537 7.82154 47.3714 8.11713 47.2532L19.8649 42.554C19.9527 42.5189 20.0494 42.5123 20.1412 42.5353L39.8588 47.4647C39.9506 47.4877 40.0473 47.4811 40.1351 47.446L52.2171 42.6131C52.388 42.5448 52.5 42.3793 52.5 42.1953Z" stroke="#666666" stroke-width="3" stroke-linejoin="round"/>
<path d="M40 47.5V17.5" stroke="#666666" stroke-width="3"/>
<path d="M20 42.5L20 12.5" stroke="#666666" stroke-width="3"/>
</svg>
