<svg width="60" height="60" viewBox="0 0 60 60" fill="none" xmlns="http://www.w3.org/2000/svg">
<circle cx="30" cy="20" r="10" stroke="#666666" stroke-width="3" stroke-linecap="round"/>
<path fill-rule="evenodd" clip-rule="evenodd" d="M41.9996 41.2969C38.4462 39.4685 34.2645 38.5 29.9996 38.5C25.3593 38.5 20.8174 39.6466 17.0762 41.7996C13.3358 43.9522 10.5498 47.0266 9.26852 50.6131C8.9898 51.3932 9.39628 52.2516 10.1764 52.5303C10.9565 52.809 11.8149 52.4025 12.0936 51.6224C13.0913 48.8298 15.3271 46.2675 18.5726 44.3998C21.8171 42.5325 25.8345 41.5 29.9996 41.5C31.6954 41.5 33.3667 41.6712 34.9713 42.0001C34.9807 42 34.9901 42 34.9996 42L41.9996 42V41.2969ZM47.9996 51.8334C48.3459 52.4732 49.1164 52.7826 49.8228 52.5303C50.6029 52.2516 51.0094 51.3932 50.7307 50.6131C50.407 49.7072 49.9874 48.834 49.4806 48H47.9996V51.8334Z" fill="#666666"/>
<path d="M45 35L45 55" stroke="#666666" stroke-width="2.5" stroke-linecap="round"/>
<path d="M55 45L35 45" stroke="#666666" stroke-width="2.5" stroke-linecap="round"/>
</svg>
